<svg width="120" height="24" viewBox="0 0 120 24" fill="none" xmlns="http://www.w3.org/2000/svg">
<path d="M6.31643 18.6723C4.42406 18.6723 2.91528 18.1311 1.79008 17.0486C0.681936 15.9493 0.0937662 14.4101 0.0255726 12.4313L0 11.797L0.0255726 11.1628C0.110815 9.23467 0.707508 7.72093 1.81565 6.62156C2.94085 5.5222 4.44111 4.97251 6.31643 4.97251C8.32814 4.97251 9.87955 5.58139 10.9706 6.79915C12.0788 8.01691 12.6329 9.64059 12.6329 11.6702V12.203C12.6329 12.3721 12.5732 12.5159 12.4539 12.6342C12.3345 12.7526 12.1811 12.8118 11.9935 12.8118H3.50345V13.0148C3.53754 13.945 3.79327 14.7315 4.27062 15.3742C4.76503 16 5.43844 16.3129 6.29086 16.3129C7.29671 16.3129 8.10651 15.9239 8.72025 15.1459C8.87369 14.9598 8.99303 14.8414 9.07827 14.7907C9.18056 14.74 9.32547 14.7146 9.51301 14.7146H11.7122C11.8657 14.7146 11.9935 14.7653 12.0958 14.8668C12.2152 14.9514 12.2748 15.0613 12.2748 15.1966C12.2748 15.6025 12.0276 16.0846 11.5332 16.6427C11.0559 17.1839 10.3654 17.6575 9.46186 18.0634C8.5583 18.4693 7.50982 18.6723 6.31643 18.6723ZM9.15499 10.6808V10.6046C9.15499 9.60676 8.89926 8.80338 8.38781 8.1945C7.89341 7.58562 7.20295 7.28118 6.31643 7.28118C5.42991 7.28118 4.73945 7.58562 4.24505 8.1945C3.75065 8.80338 3.50345 9.60676 3.50345 10.6046V10.6808H9.15499Z" fill="#F0EDF5"/>
<path d="M22.8293 18.4186C22.6589 18.4186 22.5139 18.3594 22.3946 18.241C22.2753 18.1226 22.2156 17.9789 22.2156 17.8097V1.0148C22.2156 0.828752 22.2753 0.684989 22.3946 0.58351C22.5139 0.465116 22.6589 0.405919 22.8293 0.405919H24.9519C25.1394 0.405919 25.2843 0.465116 25.3866 0.58351C25.5059 0.684989 25.5656 0.828752 25.5656 1.0148V17.8097C25.5656 17.9789 25.5059 18.1226 25.3866 18.241C25.2843 18.3594 25.1394 18.4186 24.9519 18.4186H22.8293Z" fill="#F0EDF5"/>
<path d="M34.686 18.6723C32.7937 18.6723 31.2849 18.1311 30.1597 17.0486C29.0515 15.9493 28.4634 14.4101 28.3952 12.4313L28.3696 11.797L28.3952 11.1628C28.4804 9.23467 29.0771 7.72093 30.1853 6.62156C31.3104 5.5222 32.8107 4.97251 34.686 4.97251C36.6977 4.97251 38.2491 5.58139 39.3402 6.79915C40.4484 8.01691 41.0025 9.64059 41.0025 11.6702V12.203C41.0025 12.3721 40.9428 12.5159 40.8234 12.6342C40.7041 12.7526 40.5507 12.8118 40.3631 12.8118H31.873V13.0148C31.9071 13.945 32.1629 14.7315 32.6402 15.3742C33.1346 16 33.808 16.3129 34.6605 16.3129C35.6663 16.3129 36.4761 15.9239 37.0899 15.1459C37.2433 14.9598 37.3626 14.8414 37.4479 14.7907C37.5502 14.74 37.6951 14.7146 37.8826 14.7146H40.0818C40.2353 14.7146 40.3631 14.7653 40.4654 14.8668C40.5848 14.9514 40.6444 15.0613 40.6444 15.1966C40.6444 15.6025 40.3972 16.0846 39.9028 16.6427C39.4255 17.1839 38.735 17.6575 37.8315 18.0634C36.9279 18.4693 35.8794 18.6723 34.686 18.6723ZM37.5246 10.6808V10.6046C37.5246 9.60676 37.2689 8.80338 36.7574 8.1945C36.263 7.58562 35.5725 7.28118 34.686 7.28118C33.7995 7.28118 33.109 7.58562 32.6146 8.1945C32.1202 8.80338 31.873 9.60676 31.873 10.6046V10.6808H37.5246Z" fill="#F0EDF5"/>
<path d="M47.5784 18.6723C46.7089 18.6723 45.9077 18.5032 45.1746 18.1649C44.4586 17.8097 43.8874 17.3362 43.4612 16.7442C43.0521 16.1522 42.8475 15.5011 42.8475 14.7907C42.8475 13.6406 43.3163 12.7104 44.254 12C45.1916 11.2896 46.4788 10.8076 48.1154 10.5539L51.6189 10.0465V9.51374C51.6189 8.76956 51.4313 8.21142 51.0563 7.83932C50.6812 7.46723 50.076 7.28118 49.2406 7.28118C48.678 7.28118 48.2177 7.39112 47.8597 7.61099C47.5187 7.81395 47.246 8.01691 47.0414 8.21987C46.8368 8.43975 46.7004 8.58351 46.6322 8.65116C46.564 8.85412 46.4362 8.9556 46.2486 8.9556H44.2795C44.1261 8.9556 43.9897 8.90486 43.8704 8.80338C43.7681 8.7019 43.7169 8.5666 43.7169 8.39746C43.734 7.97463 43.9386 7.4926 44.3307 6.95137C44.7399 6.41015 45.3621 5.94503 46.1975 5.55602C47.0329 5.16702 48.0558 4.97251 49.2662 4.97251C51.2779 4.97251 52.7441 5.42072 53.6647 6.31712C54.5853 7.21353 55.0456 8.38901 55.0456 9.84355V17.8097C55.0456 17.9789 54.9859 18.1226 54.8666 18.241C54.7643 18.3594 54.6194 18.4186 54.4319 18.4186H52.3605C52.19 18.4186 52.0451 18.3594 51.9258 18.241C51.8064 18.1226 51.7467 17.9789 51.7467 17.8097V16.8203C51.3717 17.3615 50.8347 17.8097 50.1357 18.1649C49.4537 18.5032 48.6013 18.6723 47.5784 18.6723ZM48.4479 16.2622C49.3855 16.2622 50.1527 15.9577 50.7494 15.3488C51.3461 14.74 51.6445 13.852 51.6445 12.685V12.1522L49.0872 12.5581C48.0984 12.7104 47.3483 12.9556 46.8368 13.2939C46.3424 13.6321 46.0952 14.0465 46.0952 14.537C46.0952 15.0782 46.3254 15.5011 46.7857 15.8055C47.246 16.1099 47.8 16.2622 48.4479 16.2622Z" fill="#F0EDF5"/>
<path d="M58.94 18.4186C58.7696 18.4186 58.6246 18.3594 58.5053 18.241C58.386 18.1226 58.3263 17.9789 58.3263 17.8097V5.86046C58.3263 5.69133 58.386 5.54757 58.5053 5.42917C58.6246 5.29387 58.7696 5.22621 58.94 5.22621H61.0114C61.1989 5.22621 61.3524 5.28541 61.4717 5.40381C61.5911 5.5222 61.6507 5.67442 61.6507 5.86046V6.90063C62.0599 6.35941 62.5713 5.94503 63.1851 5.6575C63.8159 5.36998 64.5319 5.22621 65.3332 5.22621H66.3817C66.5692 5.22621 66.7141 5.28541 66.8164 5.40381C66.9357 5.50528 66.9954 5.64905 66.9954 5.83509V7.66173C66.9954 7.83087 66.9357 7.97463 66.8164 8.09302C66.7141 8.21142 66.5692 8.27061 66.3817 8.27061H64.387C63.5857 8.27061 62.9549 8.49894 62.4946 8.9556C62.0343 9.41226 61.8042 10.0381 61.8042 10.833V17.8097C61.8042 17.9789 61.7445 18.1226 61.6252 18.241C61.5058 18.3594 61.3524 18.4186 61.1648 18.4186H58.94Z" fill="#F0EDF5"/>
<path d="M69.6036 18.4186C69.4331 18.4186 69.2882 18.3594 69.1689 18.241C69.0495 18.1226 68.9899 17.9789 68.9899 17.8097V5.83509C68.9899 5.66596 69.0495 5.5222 69.1689 5.40381C69.2882 5.28541 69.4331 5.22621 69.6036 5.22621H71.7006C71.871 5.22621 72.016 5.28541 72.1353 5.40381C72.2546 5.5222 72.3143 5.66596 72.3143 5.83509V6.87526C73.3202 5.60676 74.7437 4.97251 76.5849 4.97251C78.1534 4.97251 79.3979 5.48837 80.3185 6.52008C81.2391 7.53488 81.6994 8.92178 81.6994 10.6808V17.8097C81.6994 17.9789 81.6398 18.1226 81.5204 18.241C81.4181 18.3594 81.2732 18.4186 81.0857 18.4186H78.8353C78.6648 18.4186 78.5199 18.3594 78.4006 18.241C78.2812 18.1226 78.2216 17.9789 78.2216 17.8097V10.833C78.2216 9.83509 77.9744 9.06554 77.48 8.52431C77.0026 7.96617 76.3036 7.6871 75.383 7.6871C74.4794 7.6871 73.7634 7.96617 73.2349 8.52431C72.7235 9.08245 72.4677 9.85201 72.4677 10.833V17.8097C72.4677 17.9789 72.4081 18.1226 72.2887 18.241C72.1864 18.3594 72.0415 18.4186 71.854 18.4186H69.6036Z" fill="#F0EDF5"/>
<path d="M85.4592 3.0444C85.2887 3.0444 85.1438 2.9852 85.0245 2.86681C84.9051 2.74841 84.8455 2.60465 84.8455 2.43552V0.608879C84.8455 0.439746 84.9051 0.295983 85.0245 0.177589C85.1438 0.0591964 85.2887 0 85.4592 0H87.7863C87.9568 0 88.1017 0.0591964 88.2211 0.177589C88.3574 0.295983 88.4256 0.439746 88.4256 0.608879V2.43552C88.4256 2.60465 88.366 2.74841 88.2466 2.86681C88.1273 2.9852 87.9738 3.0444 87.7863 3.0444H85.4592ZM85.5615 18.4186C85.391 18.4186 85.2461 18.3594 85.1268 18.241C85.0074 18.1226 84.9478 17.9789 84.9478 17.8097V5.83509C84.9478 5.66596 85.0074 5.5222 85.1268 5.40381C85.2461 5.28541 85.391 5.22621 85.5615 5.22621H87.684C87.8716 5.22621 88.0165 5.28541 88.1188 5.40381C88.2381 5.50528 88.2978 5.64905 88.2978 5.83509V17.8097C88.2978 17.9789 88.2381 18.1226 88.1188 18.241C88.0165 18.3594 87.8716 18.4186 87.684 18.4186H85.5615Z" fill="#F0EDF5"/>
<path d="M92.3043 18.4186C92.1338 18.4186 91.9889 18.3594 91.8695 18.241C91.7502 18.1226 91.6905 17.9789 91.6905 17.8097V5.83509C91.6905 5.66596 91.7502 5.5222 91.8695 5.40381C91.9889 5.28541 92.1338 5.22621 92.3043 5.22621H94.4012C94.5717 5.22621 94.7166 5.28541 94.836 5.40381C94.9553 5.5222 95.015 5.66596 95.015 5.83509V6.87526C96.0208 5.60676 97.4444 4.97251 99.2856 4.97251C100.854 4.97251 102.099 5.48837 103.019 6.52008C103.94 7.53488 104.4 8.92178 104.4 10.6808V17.8097C104.4 17.9789 104.34 18.1226 104.221 18.241C104.119 18.3594 103.974 18.4186 103.786 18.4186H101.536C101.365 18.4186 101.221 18.3594 101.101 18.241C100.982 18.1226 100.922 17.9789 100.922 17.8097V10.833C100.922 9.83509 100.675 9.06554 100.181 8.52431C99.7033 7.96617 99.0043 7.6871 98.0837 7.6871C97.1801 7.6871 96.4641 7.96617 95.9356 8.52431C95.4241 9.08245 95.1684 9.85201 95.1684 10.833V17.8097C95.1684 17.9789 95.1087 18.1226 94.9894 18.241C94.8871 18.3594 94.7422 18.4186 94.5547 18.4186H92.3043Z" fill="#F0EDF5"/>
<path d="M113.658 24C112.141 24 110.913 23.7463 109.976 23.2389C109.038 22.7484 108.373 22.1818 107.981 21.5391C107.589 20.8964 107.393 20.3467 107.393 19.8901C107.393 19.7378 107.452 19.6025 107.572 19.4841C107.708 19.3658 107.853 19.3066 108.006 19.3066H110.231C110.385 19.3066 110.513 19.3404 110.615 19.408C110.734 19.4926 110.828 19.6364 110.896 19.8393C111.067 20.296 111.339 20.6765 111.714 20.981C112.107 21.3023 112.712 21.463 113.53 21.463C114.553 21.463 115.303 21.2347 115.781 20.778C116.275 20.3214 116.522 19.5349 116.522 18.4186V16.6934C115.584 17.7928 114.272 18.3425 112.584 18.3425C110.811 18.3425 109.473 17.8013 108.569 16.7188C107.683 15.6364 107.205 14.1818 107.137 12.3552L107.111 11.6702L107.137 10.9852C107.205 9.19239 107.691 7.7463 108.595 6.64693C109.498 5.53065 110.828 4.97251 112.584 4.97251C113.488 4.97251 114.28 5.14165 114.962 5.47991C115.644 5.81818 116.215 6.2833 116.676 6.87526V5.86046C116.676 5.67442 116.735 5.5222 116.855 5.40381C116.974 5.28541 117.119 5.22621 117.289 5.22621H119.361C119.531 5.22621 119.676 5.29387 119.795 5.42917C119.915 5.54757 119.974 5.69133 119.974 5.86046L120 18.0888C120 19.9662 119.472 21.4207 118.415 22.4524C117.358 23.4841 115.772 24 113.658 24ZM113.53 15.6533C114.502 15.6533 115.226 15.3488 115.704 14.74C116.198 14.1311 116.471 13.3869 116.522 12.5074C116.539 12.3721 116.548 12.093 116.548 11.6702C116.548 11.2643 116.539 10.9937 116.522 10.8584C116.471 9.96194 116.198 9.2093 115.704 8.60042C115.226 7.99154 114.502 7.6871 113.53 7.6871C111.689 7.6871 110.717 8.81184 110.615 11.0613L110.589 11.6702C110.589 12.871 110.802 13.8351 111.229 14.5624C111.672 15.2896 112.439 15.6533 113.53 15.6533Z" fill="#F0EDF5"/>
<path d="M15.8077 18.4186C15.6372 18.4186 15.4923 18.3594 15.373 18.241C15.2536 18.1226 15.194 17.9788 15.194 17.8097V15.2981C15.194 15.1289 15.2536 14.9852 15.373 14.8668C15.4923 14.7315 15.6372 14.6638 15.8077 14.6638H18.365C18.5355 14.6638 18.6804 14.7315 18.7997 14.8668C18.919 14.9852 18.9787 15.1289 18.9787 15.2981V17.8097C18.9787 17.9788 18.919 18.1226 18.7997 18.241C18.6804 18.3594 18.5355 18.4186 18.365 18.4186H15.8077Z" fill="#FF6680"/>
</svg>
